<svg xmlns="http://www.w3.org/2000/svg" viewBox="0 0 80.398 80.399"><title>Opera Logo</title><path d="M80.398 40.2c0 11.908-5.18 22.605-13.406 29.965-10.31 5.024-19.92 1.507-23.102-.687 10.128-2.223 17.78-14.468 17.78-29.28S54.02 13.144 43.89 10.92c3.18-2.193 12.79-5.71 23.102-.687C75.22 17.593 80.398 28.29 80.398 40.2z"/><path d="M26.967 17.546c-4.444 5.246-7.323 13.003-7.52 21.707v1.894c.196 8.704 3.076 16.46 7.52 21.707 5.767 7.49 14.34 12.237 23.913 12.237 5.888 0 11.397-1.797 16.11-4.922-7.112 6.36-16.5 10.23-26.79 10.23-.643 0-1.28-.016-1.915-.045C16.972 79.353 0 61.758 0 40.2 0 17.997 17.998 0 40.2 0l.15.002c10.235.038 19.565 3.9 26.642 10.23C62.28 7.108 56.77 5.31 50.88 5.31c-9.573 0-18.146 4.75-23.913 12.238z"/></svg>