<svg xmlns="http://www.w3.org/2000/svg" xmlns:xlink="http://www.w3.org/1999/xlink" viewBox="0 0 128 128"><defs><style>.cls-1,.cls-10{fill:none}.cls-1{clip-rule:evenodd}.cls-10{fill-rule:evenodd}.cls-8{opacity:.5;mix-blend-mode:multiply}.cls-10{stroke:#9c9ea1;stroke-miterlimit:10;stroke-width:.5px}</style><linearGradient id="linear-gradient" x1="64" y1="6.34" x2="64" y2="121.23" gradientUnits="userSpaceOnUse"><stop offset=".4" stop-color="#fff"/><stop offset="1" stop-color="#9c9ea1"/></linearGradient><linearGradient id="linear-gradient-2" x1="64" y1="4.74" x2="64" y2="123.26" gradientUnits="userSpaceOnUse"><stop offset=".4" stop-color="#9c9ea1"/><stop offset="1" stop-color="#828487"/></linearGradient><clipPath id="clip-path"><path class="cls-1" d="M103.2 107.8a58.8 58.8 0 0 1-39.2 15h-2.8A58.8 58.8 0 0 1 64 5.2h.2a58.8 58.8 0 0 1 39 102.6zM34.8 62.7v2.6c.3 12.3 4.4 23.2 10.6 30.5s11.9 9.8 19.2 9.8C81 105.6 94.4 87 94.4 64S81 22.4 64.6 22.4c-7.3 0-14 3.6-19.2 9.8S35.1 50.4 34.8 62.7z"/></clipPath><clipPath id="clip-path-2"><path class="cls-1" d="M106.8 104.2a58.6 58.6 0 0 0 .1-80.4C97.6 16.4 87.3 15 79 15c-13.4 0-25.5 6.6-33.6 17.2 5.2-6.2 11.9-9.8 19.2-9.8C81 22.4 94.4 41 94.4 64S81 105.6 64.6 105.6c-7.3 0-14-3.6-19.2-9.8C53.5 106.4 65.6 113 79 113c8.3 0 18.5-1.4 27.8-8.8z"/></clipPath><linearGradient id="linear-gradient-3" x1="84.95" y1="121.23" x2="84.95" y2="7.41" xlink:href="#linear-gradient"/><linearGradient id="linear-gradient-4" x1="84.95" y1="14.97" x2="84.95" y2="113.03" xlink:href="#linear-gradient-2"/><clipPath id="clip-path-3"><path class="cls-1" d="M106.8 104.2c-9.3 7.4-19.5 8.8-27.8 8.8-13.4 0-25.5-6.6-33.6-17.2-6.2-7.3-10.3-18.2-10.6-30.5v-2.6c.3-12.3 4.4-23.2 10.6-30.5C53.5 21.6 65.6 15 79 15c8.3 0 18.6 1.4 27.9 8.8l-3.7-3.6a58.7 58.7 0 0 0-39-15H64a58.8 58.8 0 0 0-2.8 117.5H64a58.8 58.8 0 0 0 39.2-15c1.2-1.1 2.5-2.4 3.6-3.6z"/></clipPath></defs><g style="isolation:isolate"><g><path fill="none" d="M0 0h128v128H0z"/><path d="M103.2 107.8a58.8 58.8 0 0 1-39.2 15h-2.8A58.8 58.8 0 0 1 64 5.2h.2a58.8 58.8 0 0 1 39 102.6zM34.8 62.7v2.6c.3 12.3 4.4 23.2 10.6 30.5s11.9 9.8 19.2 9.8C81 105.6 94.4 87 94.4 64S81 22.4 64.6 22.4c-7.3 0-14 3.6-19.2 9.8S35.1 50.4 34.8 62.7z" fill="url(#linear-gradient)" fill-rule="evenodd"/><path d="M64 5.2h.2a58.8 58.8 0 0 1-.2 117.6h-2.8A58.8 58.8 0 0 1 64 5.2m.6 100.4C81 105.6 94.4 87 94.4 64S81 22.4 64.6 22.4c-7.3 0-14 3.6-19.2 9.8S35.1 50.4 34.8 62.7v2.6c.3 12.3 4.4 23.2 10.6 30.5s11.9 9.8 19.2 9.8M64 4.7a59.3 59.3 0 0 0-2.8 118.5H64a59.3 59.3 0 0 0 .2-118.5H64zm.6 100.4c-6.9 0-13.6-3.4-18.8-9.6S35.6 77 35.3 65.3v-2.6C35.6 51 39.4 40 45.8 32.5s11.9-9.6 18.8-9.6c16.1 0 29.3 18.4 29.3 41.1s-13.2 41.1-29.3 41.1z" fill="url(#linear-gradient-2)"/><g clip-path="url(#clip-path)"><path d="M106.8 104.2c12.3-9.7 17.7-24.7 17.7-40.2s-3.7-28.4-17.6-40.2C97.6 16.4 87.3 15 79 15c-13.4 0-25.5 6.6-33.6 17.2 5.4 2.4 11.9-1.3 19.2-1.3C81 30.9 87.9 41 87.9 64S81 97.9 64.6 97.9c-7.3 0-12.1-4.1-19.2-2.1C53.5 106.4 65.6 113 79 113c8.3 0 18.5-1.4 27.8-8.8z" fill="#fff" fill-rule="evenodd"/><g clip-path="url(#clip-path-2)"><path class="cls-10" d="M65.4 19.7c19 0 34.4 19.5 34.4 43.9s-15.4 44.2-34.4 44.2S30.3 88 30.3 63.6s17.5-43.9 35.1-43.9z"/><path class="cls-10" d="M71.6 16.8c19.5 0 35.5 21.5 35.5 47.1s-15.9 46.4-35.4 46.4c-25.4 0-38.8-20.8-38.8-46.4s4.3-47.1 38.7-47.1z"/><path class="cls-10" d="M75.2 14.6c22.1 0 40 22 40 49.3s-17.9 49.3-40 49.3-44.4-22.1-44.4-49.3 22.3-49.3 44.4-49.3zM89.6 63.7h39.8M87.3 52.6a191.8 191.8 0 0 1 39.8-.5M83 43.2c7.9-2 19.9-5.9 39.6-2.3M81.3 34.1c12.1-5.4 19.7-7.7 38-3.3M74.7 28c9.7-5.7 19.1-11.4 38.2-6.1M69.1 25c4.8-7.5 16-12.7 36.5-9.4M60.5 24.2C63.1 18.7 72 13 84 11.8M87.3 74.9a191.8 191.8 0 0 0 39.8.5M83 84.3c7.9 2 19.9 5.8 39.6 2.3M81.3 93.4c12.1 5.4 19.7 7.7 38 3.3M74.7 99.5c9.7 5.7 19.1 11.4 38.2 6.1M69.1 102.5c4.8 7.4 16 12.7 36.5 9.4M60.5 103.3c2.6 5.5 11.5 11.2 23.5 12.4"/></g><path d="M106.8 104.2c12.3-9.7 17.7-24.7 17.7-40.2s-3.7-28.4-17.6-40.2C97.6 16.4 87.3 15 79 15c-13.4 0-25.5 6.6-33.6 17.2 5.4 2.4 11.9-1.3 19.2-1.3C81 30.9 87.9 41 87.9 64S81 97.9 64.6 97.9c-7.3 0-12.1-4.1-19.2-2.1C53.5 106.4 65.6 113 79 113c8.3 0 18.5-1.4 27.8-8.8z" style="mix-blend-mode:multiply" fill="url(#linear-gradient-3)" fill-rule="evenodd"/><path d="M79 15.5c11.1 0 20.1 2.8 27.5 8.7C118.8 34.6 124 46.5 124 64s-6.2 30.9-17.5 39.8c-7.4 5.9-16.4 8.7-27.5 8.7s-24.4-5.9-32.7-16.4a16.6 16.6 0 0 1 3.2-.3 23.3 23.3 0 0 1 6.9 1.2 29.3 29.3 0 0 0 8.2 1.4C81 98.4 88.4 87.8 88.4 64s-7.1-33.6-23.8-33.6a44.8 44.8 0 0 0-8.4 1.1 34.2 34.2 0 0 1-6.6 1 11.6 11.6 0 0 1-3.4-.5C54.5 21.5 66.4 15.5 79 15.5m0-.5c-13.4 0-25.5 6.6-33.6 17.2a9.8 9.8 0 0 0 4.2.8c4.4 0 9.5-2.1 15-2.1C81 30.9 87.9 41 87.9 64S81 97.9 64.6 97.9c-5.8 0-10.1-2.6-15.1-2.6a15.3 15.3 0 0 0-4.1.5C53.5 106.4 65.6 113 79 113c8.3 0 18.5-1.4 27.8-8.8 12.3-9.7 17.7-24.7 17.7-40.2s-3.7-28.4-17.6-40.2C97.6 16.4 87.3 15 79 15z" fill="url(#linear-gradient-4)"/></g><g clip-path="url(#clip-path-3)"><path class="cls-10" d="M65.5 4.2c30.8 0 57.9 26.9 57.9 60.2s-27.1 60.2-57.9 60.2-55.8-27-55.8-60.2 25-60.2 55.8-60.2z"/><path class="cls-10" d="M71 5.2c30.2 0 54.6 26.3 54.6 58.7s-24.4 58.7-54.6 58.7c-32.1 0-54.7-26.3-54.7-58.7S38.9 5.2 71 5.2z"/><path class="cls-10" d="M74 8.5c27.1 0 49.1 24.8 49.1 55.5s-22 55.5-49.1 55.5S25 94.7 25 64 46.9 8.5 74 8.5zM38.1 50.8c-3.8-1.9-29.2-6-34-.7M42.5 37.4C33.8 32 20 28.4 11 34.6M51.6 28c-6-7-20.1-13.5-31.2-5.6M61.7 19.9C55.6 13.8 44 5.7 28.5 14.6M72.8 16.1C68.3 9.8 61.3 3.7 48.5 6.2M84.2 15.7c-2-3.7-5.5-9.6-15.9-11.5M94.2 17.6c-1.4-6.8-9.9-10.9-9.9-10.9M37.9 64H1.4M38.1 76.7c-3.8 1.9-29.2 6-34 .7M42.5 90.1c-8.7 5.4-22.5 9-31.5 2.8M51.6 99.5c-6 7-20.1 13.5-31.2 5.6M61.7 108.1c-6.1 6.1-17.7 14.2-33.2 5.3M72.8 111.6c-4.2 6.4-11.5 12.7-24.3 10.2M84.3 112.2c-2.1 4.1-5.6 9.7-16 11.6M94.2 110.4c-1.4 6.8-9.9 10.9-9.9 10.9"/></g></g></g></svg>
