<svg xmlns="http://www.w3.org/2000/svg" viewBox="0 0 128 128"><defs><linearGradient id="a" x1="-524.77" y1="210.42" x2="-523.6" y2="210.42" gradientTransform="matrix(0 97.4 97.4 0 -20439.79 51117.66)" gradientUnits="userSpaceOnUse"><stop offset="0" stop-color="#ff1b2d"/><stop offset=".3" stop-color="#ff1b2d"/><stop offset=".61" stop-color="#ff1b2d"/><stop offset="1" stop-color="#a70014"/></linearGradient><linearGradient id="b" x1="-524.66" y1="211.18" x2="-523.49" y2="211.18" gradientTransform="matrix(0 86.14 86.14 0 -18107.48 45209.39)" gradientUnits="userSpaceOnUse"><stop offset="0" stop-color="#9c0000"/><stop offset=".7" stop-color="#ff4b4b"/><stop offset="1" stop-color="#ff4b4b"/></linearGradient></defs><path fill="none" d="M0 0h128v128H0z"/><path d="M64 5.2A58.8 58.8 0 0 0 5.2 64a58.9 58.9 0 0 0 56 58.7H64a58.6 58.6 0 0 0 39.2-15 42.4 42.4 0 0 1-23.6 7.3c-14 0-26.5-6.9-34.9-17.9-6.5-7.7-10.7-19-11-31.7v-2.8c.3-12.7 4.5-24 11-31.7C53.1 19.9 65.6 13 79.6 13a42.4 42.4 0 0 1 23.6 7.2 58.7 58.7 0 0 0-39-15H64z" fill="url(#a)"/><path d="M44.7 30.9c5.4-6.4 12.3-10.2 19.9-10.2 17.1 0 31 19.4 31 43.3s-13.9 43.3-31 43.3c-7.6 0-14.5-3.8-19.9-10.2 8.4 11 20.9 17.9 34.9 17.9a42.4 42.4 0 0 0 23.6-7.2A58.8 58.8 0 0 0 122.8 64a58.8 58.8 0 0 0-19.6-43.8A42.4 42.4 0 0 0 79.6 13c-14 0-26.5 6.9-34.9 17.9" fill="url(#b)"/></svg>
