<svg xmlns="http://www.w3.org/2000/svg" viewBox="0 0 219.783 80.398"><title>Opera Logo</title><path fill="#FFF" d="M26.967 62.853c-4.444-5.246-7.323-13.003-7.52-21.707v-1.894c.196-8.704 3.075-16.46 7.52-21.707 5.766-7.49 14.34-12.237 23.912-12.237 5.887 0 11.397 1.798 16.11 4.925C59.914 3.903 50.583.04 40.35.003L40.2 0C17.997 0 0 17.998 0 40.2c0 21.557 16.972 39.15 38.285 40.15.635.03 1.273.048 1.915.048 10.292 0 19.678-3.87 26.79-10.23-4.712 3.125-10.22 4.923-16.11 4.923-9.573 0-18.146-4.747-23.913-12.236z"/><path fill="#C5C7C9" d="M26.967 17.546c3.688-4.354 8.454-6.98 13.66-6.98 11.7 0 21.188 13.268 21.188 29.634s-9.486 29.634-21.19 29.634c-5.204 0-9.97-2.626-13.657-6.98 5.767 7.49 14.34 12.237 23.913 12.237 5.89 0 11.4-1.796 16.11-4.92C75.22 62.81 80.4 52.11 80.4 40.2c0-11.908-5.18-22.605-13.406-29.966C62.28 7.107 56.77 5.308 50.88 5.308c-9.573 0-18.146 4.75-23.913 12.238z"/><path fill="#FFF" d="M142.653 33.836c-3.56 0-6.626 1.678-8.702 4.335v-3.744h-2.833V67h2.835V55.32c2.077 2.656 5.144 4.334 8.703 4.334 6.614 0 11.996-5.79 11.996-12.91 0-7.117-5.382-12.908-11.996-12.908zm0 23.017c-5.07 0-9.195-4.534-9.195-10.108 0-5.573 4.125-10.107 9.195-10.107s9.195 4.534 9.195 10.107c0 5.574-4.125 10.108-9.195 10.108zM111.08 24.326c-9.47 0-17.175 8.078-17.175 18.007 0 9.928 7.705 18.007 17.176 18.007 9.473 0 17.178-8.078 17.178-18.007 0-9.93-7.705-18.007-17.176-18.007zm0 33.308c-7.98 0-14.47-6.865-14.47-15.302 0-8.438 6.49-15.302 14.47-15.302s14.473 6.864 14.473 15.302c0 8.438-6.492 15.302-14.472 15.302zm83.23-23.7c-.978.044-1.9.3-2.76.76-1.815.966-3.07 2.44-3.872 4.317l-.06.134c-.01 0-.017-.003-.026-.005v-4.514h-.003v-.045h-2.837v24.406h2.838V46.18c0-1.8.284-3.264.874-4.69.545-1.32 1.31-2.495 2.403-3.433 1.286-1.102 2.76-1.575 4.45-1.306.273.043.544.103.83.158.16-.808.545-1.836.71-2.654-.787-.22-1.814-.35-2.55-.318zm-25.125-.06c-6.614 0-11.995 5.79-11.995 12.91 0 7.118 5.38 12.908 11.995 12.908 4.73 0 8.83-2.964 10.78-7.256l-2.44-1.42c-1.46 3.462-4.646 5.875-8.34 5.875-4.79 0-8.733-4.05-9.153-9.2h21.116c.02-.3.032-.6.032-.906 0-7.6-4.932-12.908-11.995-12.908zm0 2.8c5.01 0 8.51 3.377 9.098 8.546h-18.17c.687-4.832 4.488-8.544 9.072-8.544zm47.765-2.248v3.746c-2.077-2.657-5.144-4.335-8.703-4.335-6.614 0-11.995 5.79-11.995 12.91 0 7.117 5.38 12.908 11.995 12.908 3.56 0 6.626-1.678 8.702-4.335v3.668h2.833V34.426h-2.835zm-8.702 22.427c-5.07 0-9.195-4.534-9.195-10.108 0-5.573 4.124-10.107 9.195-10.107s9.195 4.534 9.195 10.107c0 5.574-4.125 10.108-9.195 10.108z"/></svg>