<svg xmlns="http://www.w3.org/2000/svg" viewBox="0 0 219.783 80.399">

	<title>Opera Logo</title>

	<g fill="#FF1B2D">
		<path d="M80.398 40.2c0 11.908-5.18 22.605-13.406 29.965-10.31 5.024-19.92 1.507-23.102-.687 10.128-2.223 17.78-14.468 17.78-29.28S54.02 13.144 43.89 10.92c3.18-2.193 12.79-5.71 23.102-.687C75.22 17.593 80.398 28.29 80.398 40.2z"/>
		<path d="M26.967 17.546c-4.444 5.246-7.323 13.003-7.52 21.707v1.894c.196 8.704 3.076 16.46 7.52 21.707 5.767 7.49 14.34 12.237 23.913 12.237 5.888 0 11.397-1.797 16.11-4.922-7.112 6.36-16.5 10.23-26.79 10.23-.643 0-1.28-.016-1.915-.045C16.972 79.353 0 61.758 0 40.2 0 17.997 17.998 0 40.2 0l.15.002c10.235.038 19.565 3.9 26.642 10.23C62.28 7.108 56.77 5.31 50.88 5.31c-9.573 0-18.146 4.75-23.913 12.238z"/>
		<path d="M142.653 33.836c-3.56 0-6.626 1.678-8.702 4.335v-3.745h-2.834V67h2.835V55.32c2.077 2.656 5.144 4.334 8.703 4.334 6.614 0 11.996-5.79 11.996-12.91-.002-7.117-5.383-12.908-11.997-12.908zm0 23.017c-5.07 0-9.195-4.534-9.195-10.108 0-5.573 4.125-10.107 9.195-10.107s9.195 4.534 9.195 10.107c0 5.574-4.125 10.108-9.195 10.108zM111.08 24.326c-9.47 0-17.175 8.078-17.175 18.007 0 9.928 7.705 18.007 17.176 18.007 9.472 0 17.177-8.078 17.177-18.007 0-9.93-7.705-18.007-17.176-18.007zm0 33.308c-7.98 0-14.47-6.865-14.47-15.302 0-8.438 6.49-15.302 14.47-15.302s14.473 6.864 14.473 15.302c0 8.438-6.492 15.302-14.472 15.302zM194.31 33.935c-.978.043-1.9.3-2.76.758-1.815.967-3.07 2.44-3.872 4.318l-.06.133c-.01 0-.017-.003-.026-.005v-4.513h-.003v-.045h-2.836v24.405h2.838v-.164-12.643c0-1.8.283-3.263.873-4.69.545-1.32 1.31-2.494 2.403-3.432 1.286-1.102 2.76-1.575 4.45-1.306.273.042.544.102.83.157.16-.808.545-1.836.71-2.654-.787-.22-1.814-.35-2.55-.318zM169.185 33.875c-6.614 0-11.995 5.79-11.995 12.91 0 7.117 5.38 12.907 11.995 12.907 4.73 0 8.83-2.964 10.78-7.256l-2.44-1.42c-1.46 3.462-4.646 5.875-8.34 5.875-4.79 0-8.733-4.05-9.153-9.2h21.116c.02-.3.032-.6.032-.907 0-7.6-4.932-12.908-11.995-12.908zm0 2.8c5.01 0 8.51 3.376 9.098 8.545h-18.17c.687-4.832 4.488-8.544 9.072-8.544zM216.95 34.426v3.746c-2.077-2.657-5.144-4.335-8.703-4.335-6.614 0-11.995 5.79-11.995 12.91 0 7.117 5.38 12.908 11.995 12.908 3.56 0 6.626-1.678 8.702-4.335v3.668h2.834V34.426h-2.835zm-8.702 22.427c-5.07 0-9.195-4.534-9.195-10.108 0-5.573 4.124-10.107 9.195-10.107s9.195 4.534 9.195 10.107c0 5.574-4.125 10.108-9.195 10.108z"/>
	</g>

</svg>
