<svg xmlns="http://www.w3.org/2000/svg" viewBox="0 0 86.355 122.652"><title>Opera Logo</title><linearGradient id="a" gradientUnits="userSpaceOnUse" x1="37.231" y1="1.311" x2="37.231" y2="79.228"><stop offset=".3" stop-color="#FF1B2D"/><stop offset=".438" stop-color="#FA1A2C"/><stop offset=".594" stop-color="#ED1528"/><stop offset=".758" stop-color="#D60E21"/><stop offset=".927" stop-color="#B70519"/><stop offset="1" stop-color="#A70014"/></linearGradient><linearGradient id="b" gradientUnits="userSpaceOnUse" x1="57.418" y1="5.903" x2="57.418" y2="74.817"><stop offset="0" stop-color="#9C0000"/><stop offset=".7" stop-color="#FF4B4B"/></linearGradient><path fill="url(#a)" d="M30.702 62.853c-4.444-5.246-7.323-13.003-7.52-21.707v-1.894c.196-8.704 3.075-16.46 7.52-21.707 5.766-7.49 14.34-12.237 23.912-12.237 5.89 0 11.4 1.798 16.11 4.925C63.65 3.903 54.32.04 44.087.003c-.05 0-.1-.003-.152-.003-22.2 0-40.2 17.998-40.2 40.2 0 21.558 16.973 39.152 38.286 40.15.636.03 1.274.048 1.916.048 10.292 0 19.678-3.87 26.79-10.23-4.712 3.125-10.22 4.923-16.11 4.923-9.573 0-18.146-4.747-23.913-12.236z"/><path fill="url(#b)" d="M30.702 17.546c3.688-4.354 8.454-6.98 13.658-6.98 11.702 0 21.19 13.268 21.19 29.634s-9.487 29.634-21.19 29.634c-5.205 0-9.97-2.626-13.658-6.98 5.767 7.49 14.34 12.237 23.913 12.237 5.888 0 11.397-1.796 16.11-4.92 8.228-7.36 13.41-18.06 13.41-29.97 0-11.908-5.18-22.605-13.408-29.966-4.712-3.126-10.222-4.925-16.11-4.925-9.575 0-18.148 4.75-23.915 12.237z"/><path d="M33.44 99.9c-2.44 0-4.544 1.152-5.97 2.975v-2.57h-1.944v22.346h1.945v-8.01c1.426 1.822 3.53 2.973 5.97 2.973 4.54 0 8.23-3.973 8.23-8.856 0-4.882-3.69-8.855-8.23-8.855zm0 15.79c-3.477 0-6.307-3.11-6.307-6.933s2.83-6.934 6.308-6.934c3.48 0 6.31 3.11 6.31 6.934 0 3.823-2.83 6.934-6.31 6.934zM11.783 93.377C5.286 93.377 0 98.917 0 105.73c0 6.81 5.286 12.353 11.783 12.353s11.783-5.542 11.783-12.353c0-6.812-5.286-12.353-11.783-12.353zm0 22.85c-5.474 0-9.928-4.71-9.928-10.498 0-5.79 4.454-10.5 9.928-10.5 5.474 0 9.928 4.71 9.928 10.5 0 5.787-4.452 10.496-9.926 10.496zM68.88 99.97c-.67.028-1.304.205-1.895.52-1.245.662-2.106 1.673-2.656 2.96l-.043.092-.018-.003v-3.098h-.003v-.03h-1.945v16.742h1.948v-8.786c0-1.235.195-2.24.6-3.217.374-.905.898-1.71 1.65-2.353.882-.756 1.893-1.08 3.052-.896.188.03.374.073.57.11.11-.553.374-1.26.486-1.82-.54-.152-1.244-.242-1.75-.22zm-17.237-.042c-4.537 0-8.23 3.973-8.23 8.856s3.693 8.855 8.23 8.855c3.246 0 6.058-2.035 7.396-4.98l-1.677-.975c-1.002 2.376-3.186 4.03-5.72 4.03-3.288 0-5.992-2.778-6.28-6.31H59.85c.013-.206.022-.413.022-.623 0-5.214-3.383-8.855-8.23-8.855zm0 1.92c3.436 0 5.84 2.316 6.242 5.862H45.42c.47-3.314 3.078-5.86 6.223-5.86zm32.767-1.542v2.57c-1.424-1.823-3.528-2.974-5.97-2.974-4.537 0-8.23 3.973-8.23 8.856s3.693 8.856 8.23 8.856c2.44 0 4.545-1.15 5.97-2.974v2.516h1.945v-16.85H84.41zm-5.97 15.385c-3.477 0-6.307-3.11-6.307-6.932s2.83-6.934 6.308-6.934 6.31 3.11 6.31 6.934c0 3.823-2.83 6.934-6.31 6.934z"/></svg>