<svg xmlns="http://www.w3.org/2000/svg" viewBox="0 0 86.355 122.652"><title>Opera Logo</title><g fill="#FFF"><path d="M84.133 40.2c0 11.908-5.18 22.605-13.406 29.965-10.31 5.024-19.92 1.507-23.102-.687 10.128-2.223 17.78-14.468 17.78-29.28s-7.652-27.055-17.78-29.278c3.18-2.193 12.79-5.71 23.102-.687 8.227 7.36 13.406 18.058 13.406 29.966z"/><path d="M30.702 17.546c-4.444 5.246-7.323 13.003-7.52 21.707v1.894c.196 8.704 3.076 16.46 7.52 21.707 5.767 7.49 14.34 12.237 23.913 12.237 5.888 0 11.397-1.796 16.11-4.92-7.112 6.36-16.5 10.23-26.79 10.23-.643 0-1.28-.017-1.915-.046-21.312-1-38.285-18.594-38.285-40.153C3.735 18 21.733 0 43.935 0l.15.003c10.235.038 19.565 3.9 26.642 10.23-4.712-3.125-10.222-4.924-16.11-4.924-9.575 0-18.147 4.75-23.915 12.237zM33.44 99.9c-2.44 0-4.544 1.152-5.97 2.975v-2.57h-1.944v22.346h1.945v-8.01c1.426 1.822 3.53 2.973 5.97 2.973 4.54 0 8.23-3.973 8.23-8.856 0-4.882-3.69-8.855-8.23-8.855zm0 15.79c-3.477 0-6.307-3.11-6.307-6.933s2.83-6.934 6.308-6.934c3.48 0 6.31 3.11 6.31 6.934 0 3.823-2.83 6.934-6.31 6.934zM11.783 93.377C5.286 93.377 0 98.917 0 105.73c0 6.81 5.286 12.353 11.783 12.353s11.783-5.542 11.783-12.353c0-6.812-5.286-12.353-11.783-12.353zm0 22.85c-5.474 0-9.928-4.71-9.928-10.498 0-5.79 4.454-10.5 9.928-10.5 5.474 0 9.928 4.71 9.928 10.5 0 5.787-4.452 10.496-9.926 10.496zM68.88 99.97c-.67.028-1.304.205-1.895.52-1.245.662-2.106 1.673-2.656 2.96l-.043.092-.018-.003v-3.098h-.003v-.03h-1.945v16.742h1.948v-8.786c0-1.235.195-2.24.6-3.217.374-.905.898-1.71 1.65-2.353.882-.756 1.893-1.08 3.052-.896.188.03.374.073.57.11.11-.553.374-1.26.486-1.82-.54-.152-1.244-.242-1.75-.22zm-17.237-.042c-4.537 0-8.23 3.973-8.23 8.856s3.693 8.855 8.23 8.855c3.246 0 6.058-2.035 7.396-4.98l-1.677-.975c-1.002 2.376-3.186 4.03-5.72 4.03-3.288 0-5.992-2.778-6.28-6.31H59.85c.013-.206.022-.413.022-.623 0-5.214-3.383-8.855-8.23-8.855zm0 1.92c3.436 0 5.84 2.316 6.242 5.862H45.42c.47-3.314 3.078-5.86 6.223-5.86zm32.767-1.542v2.57c-1.424-1.823-3.528-2.974-5.97-2.974-4.537 0-8.23 3.973-8.23 8.856s3.693 8.856 8.23 8.856c2.44 0 4.545-1.15 5.97-2.974v2.516h1.945v-16.85H84.41zm-5.97 15.385c-3.477 0-6.307-3.11-6.307-6.932s2.83-6.934 6.308-6.934 6.31 3.11 6.31 6.934c0 3.823-2.83 6.934-6.31 6.934z"/></g></svg>